<svg width="20" height="20" viewBox="0 0 20 20" fill="none" xmlns="http://www.w3.org/2000/svg">
<path d="M10.8334 11.6665H7.50004C7.27903 11.6665 7.06707 11.7543 6.91078 11.9106C6.7545 12.0669 6.66671 12.2788 6.66671 12.4998C6.66671 12.7209 6.7545 12.9328 6.91078 13.0891C7.06707 13.2454 7.27903 13.3332 7.50004 13.3332H10.8334C11.0544 13.3332 11.2663 13.2454 11.4226 13.0891C11.5789 12.9328 11.6667 12.7209 11.6667 12.4998C11.6667 12.2788 11.5789 12.0669 11.4226 11.9106C11.2663 11.7543 11.0544 11.6665 10.8334 11.6665ZM14.1667 3.33317H13.1834C13.0114 2.84688 12.6933 2.42567 12.2726 2.12729C11.8519 1.8289 11.3492 1.66795 10.8334 1.6665H9.16671C8.65092 1.66795 8.14821 1.8289 7.72749 2.12729C7.30677 2.42567 6.98863 2.84688 6.81671 3.33317H5.83337C5.17033 3.33317 4.53445 3.59656 4.06561 4.0654C3.59677 4.53424 3.33337 5.17013 3.33337 5.83317V15.8332C3.33337 16.4962 3.59677 17.1321 4.06561 17.6009C4.53445 18.0698 5.17033 18.3332 5.83337 18.3332H14.1667C14.8297 18.3332 15.4656 18.0698 15.9345 17.6009C16.4033 17.1321 16.6667 16.4962 16.6667 15.8332V5.83317C16.6667 5.17013 16.4033 4.53424 15.9345 4.0654C15.4656 3.59656 14.8297 3.33317 14.1667 3.33317ZM8.33337 4.1665C8.33337 3.94549 8.42117 3.73353 8.57745 3.57725C8.73373 3.42097 8.94569 3.33317 9.16671 3.33317H10.8334C11.0544 3.33317 11.2663 3.42097 11.4226 3.57725C11.5789 3.73353 11.6667 3.94549 11.6667 4.1665V4.99984H8.33337V4.1665ZM15 15.8332C15 16.0542 14.9122 16.2661 14.756 16.4224C14.5997 16.5787 14.3877 16.6665 14.1667 16.6665H5.83337C5.61236 16.6665 5.4004 16.5787 5.24412 16.4224C5.08784 16.2661 5.00004 16.0542 5.00004 15.8332V5.83317C5.00004 5.61216 5.08784 5.4002 5.24412 5.24392C5.4004 5.08764 5.61236 4.99984 5.83337 4.99984H6.66671V5.83317C6.66671 6.05418 6.7545 6.26615 6.91078 6.42243C7.06707 6.57871 7.27903 6.6665 7.50004 6.6665H12.5C12.7211 6.6665 12.933 6.57871 13.0893 6.42243C13.2456 6.26615 13.3334 6.05418 13.3334 5.83317V4.99984H14.1667C14.3877 4.99984 14.5997 5.08764 14.756 5.24392C14.9122 5.4002 15 5.61216 15 5.83317V15.8332ZM12.5 8.33317H7.50004C7.27903 8.33317 7.06707 8.42097 6.91078 8.57725C6.7545 8.73353 6.66671 8.94549 6.66671 9.1665C6.66671 9.38752 6.7545 9.59948 6.91078 9.75576C7.06707 9.91204 7.27903 9.99984 7.50004 9.99984H12.5C12.7211 9.99984 12.933 9.91204 13.0893 9.75576C13.2456 9.59948 13.3334 9.38752 13.3334 9.1665C13.3334 8.94549 13.2456 8.73353 13.0893 8.57725C12.933 8.42097 12.7211 8.33317 12.5 8.33317Z" fill="white" fill-opacity="0.7"/>
</svg>
