<svg width="24" height="24" viewBox="0 0 24 24" fill="none" xmlns="http://www.w3.org/2000/svg">
<path d="M20.61 19.1898C21.2367 18.3498 21.6668 17.3797 21.8685 16.3512C22.0702 15.3228 22.0383 14.2621 21.7753 13.2476C21.5123 12.2331 21.0249 11.2905 20.349 10.4896C19.673 9.68859 18.8259 9.04962 17.87 8.61981C17.6618 7.42191 17.1833 6.28723 16.4708 5.30198C15.7584 4.31673 14.8307 3.50684 13.7583 2.93384C12.686 2.36084 11.4971 2.03981 10.282 1.99515C9.06701 1.95048 7.85778 2.18335 6.74623 2.67607C5.63468 3.16879 4.65006 3.90838 3.86719 4.83866C3.08431 5.76894 2.52378 6.86543 2.22818 8.04481C1.93259 9.22418 1.9097 10.4554 2.16127 11.645C2.41283 12.8345 2.93223 13.9511 3.67999 14.9098L2.28999 16.2898C2.15123 16.4304 2.05724 16.609 2.01986 16.803C1.98249 16.997 2.00341 17.1977 2.07999 17.3798C2.15501 17.5624 2.28241 17.7188 2.44613 17.8291C2.60985 17.9394 2.80257 17.9988 2.99999 17.9998H8.68999C9.25664 19.1944 10.15 20.2041 11.2667 20.912C12.3834 21.6199 13.6778 21.9971 15 21.9998H21C21.1974 21.9988 21.3901 21.9394 21.5539 21.8291C21.7176 21.7188 21.845 21.5624 21.92 21.3798C21.9966 21.1977 22.0175 20.997 21.9801 20.803C21.9427 20.609 21.8487 20.4304 21.71 20.2898L20.61 19.1898ZM7.99999 14.9998C8.00136 15.3347 8.02811 15.669 8.07999 15.9998H5.40999L5.75999 15.6598C5.85372 15.5668 5.92811 15.4562 5.97888 15.3344C6.02965 15.2125 6.05579 15.0818 6.05579 14.9498C6.05579 14.8178 6.02965 14.6871 5.97888 14.5652C5.92811 14.4434 5.85372 14.3328 5.75999 14.2398C5.19955 13.6855 4.75524 13.0251 4.45304 12.297C4.15085 11.569 3.99683 10.7881 3.99999 9.99981C3.99999 8.40851 4.63213 6.88239 5.75735 5.75717C6.88257 4.63195 8.40869 3.99981 9.99999 3.99981C11.2417 3.99235 12.4545 4.37419 13.4679 5.09167C14.4814 5.80915 15.2445 6.82619 15.65 7.99981C15.43 7.99981 15.22 7.99981 15 7.99981C13.1435 7.99981 11.363 8.73731 10.0502 10.0501C8.73749 11.3628 7.99999 13.1433 7.99999 14.9998ZM18.54 19.9998L18.59 20.0498H15C13.8433 20.0477 12.7232 19.6447 11.8303 18.9094C10.9375 18.1741 10.3272 17.152 10.1034 16.0172C9.87961 14.8823 10.0562 13.705 10.6031 12.6858C11.1499 11.6666 12.0333 10.8685 13.1025 10.4275C14.1718 9.9865 15.361 9.92986 16.4673 10.2672C17.5737 10.6046 18.5289 11.3151 19.1701 12.2778C19.8114 13.2404 20.0991 14.3956 19.9842 15.5465C19.8693 16.6974 19.3589 17.773 18.54 18.5898C18.3516 18.7744 18.2437 19.026 18.24 19.2898C18.2405 19.4221 18.2673 19.553 18.3188 19.6749C18.3703 19.7968 18.4455 19.9072 18.54 19.9998Z" fill="#606B85"/>
</svg>
