<svg width="15" height="14" viewBox="0 0 15 14" fill="none" xmlns="http://www.w3.org/2000/svg">
<path d="M11.5834 4.6665H11.0001V2.9165C11.0001 2.45238 10.8157 2.00726 10.4875 1.67907C10.1593 1.35088 9.71421 1.1665 9.25008 1.1665H3.41675C2.95262 1.1665 2.5075 1.35088 2.17931 1.67907C1.85112 2.00726 1.66675 2.45238 1.66675 2.9165V9.9165C1.66732 10.0317 1.70197 10.1441 1.76634 10.2396C1.8307 10.3351 1.92189 10.4094 2.02841 10.4532C2.09764 10.4858 2.17356 10.5018 2.25008 10.4998C2.32685 10.5003 2.40296 10.4856 2.47403 10.4565C2.5451 10.4275 2.60974 10.3847 2.66425 10.3307L4.30341 8.68567H5.16675V9.52567C5.16675 9.9898 5.35112 10.4349 5.67931 10.7631C6.0075 11.0913 6.45262 11.2757 6.91675 11.2757H10.9534L12.3359 12.664C12.3904 12.7181 12.4551 12.7608 12.5261 12.7899C12.5972 12.8189 12.6733 12.8336 12.7501 12.8332C12.8266 12.8351 12.9025 12.8192 12.9717 12.7865C13.0783 12.7427 13.1695 12.6684 13.2338 12.5729C13.2982 12.4774 13.3328 12.365 13.3334 12.2498V6.4165C13.3334 5.95237 13.149 5.50726 12.8209 5.17907C12.4927 4.85088 12.0475 4.6665 11.5834 4.6665ZM5.16675 6.4165V7.519H4.06425C3.98748 7.51856 3.91137 7.53327 3.8403 7.5623C3.76923 7.59133 3.70459 7.63411 3.65008 7.68817L2.83341 8.51067V2.9165C2.83341 2.76179 2.89487 2.61342 3.00427 2.50403C3.11367 2.39463 3.26204 2.33317 3.41675 2.33317H9.25008C9.40479 2.33317 9.55316 2.39463 9.66256 2.50403C9.77196 2.61342 9.83342 2.76179 9.83342 2.9165V4.6665H6.91675C6.45262 4.6665 6.0075 4.85088 5.67931 5.17907C5.35112 5.50726 5.16675 5.95237 5.16675 6.4165ZM12.1667 10.844L11.5834 10.2607C11.5294 10.2056 11.465 10.1617 11.3939 10.1317C11.3228 10.1016 11.2464 10.086 11.1692 10.0857H6.91675C6.76204 10.0857 6.61367 10.0242 6.50427 9.91482C6.39487 9.80542 6.33342 9.65705 6.33342 9.50234V6.4165C6.33342 6.26179 6.39487 6.11342 6.50427 6.00402C6.61367 5.89463 6.76204 5.83317 6.91675 5.83317H11.5834C11.7381 5.83317 11.8865 5.89463 11.9959 6.00402C12.1053 6.11342 12.1667 6.26179 12.1667 6.4165V10.844Z" fill="white"/>
</svg>
