<svg width="20" height="20" viewBox="0 0 20 20" fill="none" xmlns="http://www.w3.org/2000/svg">
<path d="M16.7999 4.16648C15.9166 3.28082 14.7456 2.74026 13.4986 2.64245C12.2515 2.54465 11.0106 2.89603 9.99995 3.63315C8.93966 2.84451 7.61994 2.48691 6.30655 2.63234C4.99315 2.77778 3.78364 3.41546 2.92159 4.41697C2.05953 5.41847 1.60896 6.70941 1.66061 8.02982C1.71226 9.35023 2.26229 10.602 3.19994 11.5331L8.37495 16.7165C8.80829 17.143 9.39193 17.382 9.99995 17.382C10.608 17.382 11.1916 17.143 11.6249 16.7165L16.7999 11.5331C17.7729 10.5542 18.319 9.23004 18.319 7.84981C18.319 6.46958 17.7729 5.14542 16.7999 4.16648ZM15.6249 10.3831L10.4499 15.5581C10.3911 15.6176 10.321 15.6648 10.2437 15.697C10.1665 15.7292 10.0836 15.7458 9.99995 15.7458C9.91626 15.7458 9.8334 15.7292 9.75616 15.697C9.67892 15.6648 9.60883 15.6176 9.54995 15.5581L4.37494 10.3581C3.72141 9.6901 3.35545 8.7927 3.35545 7.85815C3.35545 6.92359 3.72141 6.02619 4.37494 5.35815C5.04091 4.70064 5.93909 4.33195 6.87494 4.33195C7.8108 4.33195 8.70898 4.70064 9.37495 5.35815C9.45241 5.43625 9.54458 5.49825 9.64613 5.54056C9.74768 5.58286 9.8566 5.60464 9.96661 5.60464C10.0766 5.60464 10.1855 5.58286 10.2871 5.54056C10.3886 5.49825 10.4808 5.43625 10.5583 5.35815C11.2242 4.70064 12.1224 4.33195 13.0583 4.33195C13.9941 4.33195 14.8923 4.70064 15.5583 5.35815C16.2208 6.01744 16.5988 6.90997 16.6112 7.84455C16.6237 8.77913 16.2696 9.68142 15.6249 10.3581V10.3831Z" fill="white" fill-opacity="0.7"/>
</svg>
