<svg width="14" height="14" viewBox="0 0 14 14" fill="none" xmlns="http://www.w3.org/2000/svg">
<path d="M12.6641 11.8357L10.4999 9.68899C11.34 8.64156 11.7468 7.31208 11.6368 5.97391C11.5267 4.63575 10.9081 3.39061 9.90816 2.49453C8.90824 1.59845 7.603 1.11954 6.26082 1.15626C4.91863 1.19299 3.64153 1.74257 2.69211 2.69199C1.74269 3.64141 1.19311 4.91851 1.15639 6.26069C1.11966 7.60288 1.59857 8.90812 2.49465 9.90804C3.39073 10.908 4.63587 11.5266 5.97404 11.6366C7.3122 11.7467 8.64168 11.3399 9.68911 10.4998L11.8358 12.6465C11.89 12.7012 11.9545 12.7446 12.0256 12.7742C12.0967 12.8038 12.1729 12.819 12.2499 12.819C12.327 12.819 12.4032 12.8038 12.4743 12.7742C12.5454 12.7446 12.6099 12.7012 12.6641 12.6465C12.7693 12.5377 12.828 12.3924 12.828 12.2411C12.828 12.0898 12.7693 11.9444 12.6641 11.8357ZM6.41661 10.4998C5.609 10.4998 4.81953 10.2603 4.14803 9.81166C3.47653 9.36298 2.95316 8.72525 2.6441 7.97911C2.33504 7.23298 2.25418 6.41196 2.41174 5.61987C2.56929 4.82778 2.95819 4.1002 3.52926 3.52914C4.10032 2.95807 4.8279 2.56917 5.61999 2.41162C6.41208 2.25406 7.2331 2.33492 7.97924 2.64398C8.72537 2.95304 9.3631 3.47641 9.81178 4.14791C10.2605 4.81941 10.4999 5.60888 10.4999 6.41649C10.4999 7.49946 10.0697 8.53807 9.30396 9.30384C8.53819 10.0696 7.49958 10.4998 6.41661 10.4998Z" fill="#AEB2C1"/>
</svg>
