<?xml version="1.0" encoding="UTF-8"?><svg xmlns="http://www.w3.org/2000/svg" viewBox="0 0 457.99 31.22"><defs><style>.d{letter-spacing:.1em;}.e{letter-spacing:.1em;}.f{letter-spacing:0em;}.g,.h{fill:#fff;}.i{letter-spacing:.06em;}.h{font-family:Geograph-Bold, Geograph;font-size:27.74px;}</style></defs><g id="a"/><g id="b"><g id="c"><g><text class="h" transform="translate(46.37 24.35)"><tspan class="e" x="0" y="0">C</tspan><tspan class="i" x="20.5" y="0">L</tspan><tspan class="e" x="37.25" y="0">OUD CITY HEA</tspan><tspan class="f" x="266.92" y="0">L</tspan><tspan class="d" x="282.09" y="0">THCARE</tspan></text><g><path class="g" d="M29.37,9.25V3.7C29.37,1.66,27.72,0,25.67,0h-5.55C18.09,0,16.43,1.66,16.43,3.7V12.48c0,.26,.21,.46,.46,.46h8.78c2.04,0,3.7-1.66,3.7-3.7Z"/><path class="g" d="M16.43,17.1v8.78c0,2.04,1.66,3.7,3.7,3.7h5.55c2.04,0,3.7-1.66,3.7-3.7v-5.55c0-2.04-1.66-3.7-3.7-3.7h-8.78c-.26,0-.46,.21-.46,.46Z"/><path class="g" d="M0,20.34v5.55c0,2.04,1.66,3.7,3.7,3.7h5.55c2.04,0,3.7-1.66,3.7-3.7v-8.78c0-.26-.21-.46-.46-.46H3.7C1.66,16.64,0,18.3,0,20.34Z"/><path class="g" d="M12.94,12.48V3.7C12.94,1.66,11.29,0,9.25,0H3.7C1.66,0,0,1.66,0,3.7v5.55c0,2.04,1.66,3.7,3.7,3.7H12.48c.26,0,.46-.21,.46-.46Z"/></g></g></g></g></svg>