<svg width="20" height="20" viewBox="0 0 20 20" fill="none" xmlns="http://www.w3.org/2000/svg">
<path d="M10 1.6665C9.12456 1.6665 8.25765 1.83415 7.44882 2.15988C6.63998 2.4856 5.90505 2.96302 5.286 3.56489C4.03575 4.7804 3.33337 6.42899 3.33337 8.14799V12.685C3.33337 12.8569 3.40361 13.0218 3.52864 13.1433C3.65366 13.2649 3.82323 13.3332 4.00004 13.3332H6.00004C6.53047 13.3332 7.03918 13.1283 7.41425 12.7637C7.78933 12.399 8.00004 11.9044 8.00004 11.3887V10.0924C8.00004 9.57673 7.78933 9.08215 7.41425 8.7175C7.03918 8.35285 6.53047 8.14799 6.00004 8.14799H4.66671C4.66671 6.77279 5.22861 5.45392 6.2288 4.48151C7.229 3.5091 8.58555 2.9628 10 2.9628C11.4145 2.9628 12.7711 3.5091 13.7713 4.48151C14.7715 5.45392 15.3334 6.77279 15.3334 8.14799H14C13.4696 8.14799 12.9609 8.35285 12.5858 8.7175C12.2108 9.08215 12 9.57673 12 10.0924V11.3887C12 11.9044 12.2108 12.399 12.5858 12.7637C12.9609 13.1283 13.4696 13.3332 14 13.3332H15.2164H16C16.1769 13.3332 16.3464 13.2649 16.4714 13.1433C16.5965 13.0218 16.6667 12.8569 16.6667 12.685V8.14799C16.6667 6.42899 15.9643 4.7804 14.7141 3.56489C13.4638 2.34937 11.7682 1.6665 10 1.6665ZM6.00004 9.44428C6.17685 9.44428 6.34642 9.51257 6.47144 9.63412C6.59647 9.75567 6.66671 9.92053 6.66671 10.0924V11.3887C6.66671 11.5606 6.59647 11.7255 6.47144 11.847C6.34642 11.9686 6.17685 12.0369 6.00004 12.0369H4.66671V9.44428H6.00004ZM15.3334 12.0369H14C13.8232 12.0369 13.6537 11.9686 13.5286 11.847C13.4036 11.7255 13.3334 11.5606 13.3334 11.3887V10.0924C13.3334 9.92053 13.4036 9.75567 13.5286 9.63412C13.6537 9.51257 13.8232 9.44428 14 9.44428H15.3334V12.0369Z" fill="white" fill-opacity="0.7"/>
<path d="M13.7713 15.3283C13.156 15.7897 12.4059 16.1268 11.5905 16.3178C11.6667 16.2498 11.6667 17.3411 11.6667 17.3411C12.8101 17.1196 13.8648 16.6723 14.7141 16.0354C15.9643 15.0977 16.6667 13.8259 16.6667 12.4998C16.6667 12.4998 16.6667 13.3332 15.2164 13.3332C15.0033 14.0832 14.5054 14.7777 13.7713 15.3283Z" fill="white" fill-opacity="0.7"/>
<path d="M9.16671 16.6665C9.16671 16.2063 9.5398 15.8332 10 15.8332H10.8334C11.1691 15.8332 11.4585 16.0317 11.5905 16.3178C11.6394 16.4239 11.6667 16.542 11.6667 16.6665V17.3411V17.4998C11.6667 17.9601 11.2936 18.3332 10.8334 18.3332H10C9.5398 18.3332 9.16671 17.9601 9.16671 17.4998V16.6665Z" fill="white" fill-opacity="0.7"/>
</svg>
