<svg width="15" height="14" viewBox="0 0 15 14" fill="none" xmlns="http://www.w3.org/2000/svg">
<path d="M11.8399 7.58322C11.7116 7.58322 11.5774 7.54238 11.4491 7.51322C11.1892 7.45595 10.9338 7.37991 10.6849 7.28572C10.4143 7.18727 10.1169 7.19238 9.84978 7.30007C9.58271 7.40776 9.3649 7.61042 9.23827 7.86905L9.10994 8.13155C8.54177 7.81549 8.01968 7.42293 7.55827 6.96488C7.10022 6.50348 6.70767 5.98138 6.3916 5.41322L6.6366 5.24988C6.89523 5.12325 7.09789 4.90544 7.20558 4.63837C7.31327 4.3713 7.31839 4.07383 7.21994 3.80322C7.12732 3.5538 7.05132 3.29851 6.99244 3.03905C6.96327 2.91072 6.93994 2.77655 6.92244 2.64238C6.8516 2.23149 6.63638 1.8594 6.31555 1.59311C5.99471 1.32681 5.58934 1.18382 5.17244 1.18988H3.42244C3.17104 1.18752 2.92208 1.23936 2.69252 1.34186C2.46295 1.44436 2.25817 1.59512 2.0921 1.78388C1.92604 1.97264 1.8026 2.19496 1.73018 2.43572C1.65776 2.67647 1.63807 2.93 1.67244 3.17905C1.9832 5.62286 3.09929 7.89348 4.8444 9.63225C6.58951 11.371 8.86418 12.4788 11.3091 12.7807H11.5308C11.9609 12.7813 12.3763 12.6235 12.6974 12.3374C12.882 12.1723 13.0294 11.97 13.13 11.7437C13.2305 11.5175 13.2819 11.2725 13.2808 11.0249V9.27488C13.2736 8.86969 13.1261 8.47954 12.8633 8.17102C12.6005 7.8625 12.2388 7.65475 11.8399 7.58322V7.58322ZM12.1316 11.0832C12.1315 11.166 12.1138 11.2479 12.0796 11.3233C12.0454 11.3988 11.9955 11.4661 11.9333 11.5207C11.8681 11.577 11.7919 11.619 11.7095 11.6441C11.6271 11.6693 11.5404 11.6769 11.4549 11.6665C9.2703 11.3864 7.24107 10.387 5.68735 8.82589C4.13363 7.26477 3.14384 5.23083 2.8741 3.04488C2.86482 2.95943 2.87296 2.87299 2.89802 2.79078C2.92309 2.70856 2.96456 2.63228 3.01994 2.56655C3.0746 2.50433 3.14189 2.45446 3.21732 2.42026C3.29276 2.38606 3.37461 2.36832 3.45744 2.36822H5.20744C5.34309 2.3652 5.47555 2.40956 5.58202 2.49367C5.68849 2.57779 5.76231 2.69638 5.79077 2.82905C5.8141 2.98849 5.84327 3.14599 5.87827 3.30155C5.94566 3.60905 6.03534 3.91124 6.1466 4.20572L5.32994 4.58488C5.26011 4.61692 5.1973 4.66243 5.14511 4.71881C5.09292 4.77519 5.05239 4.84132 5.02583 4.91341C4.99927 4.9855 4.98721 5.06213 4.99035 5.13889C4.99348 5.21565 5.01175 5.29103 5.0441 5.36072C5.88364 7.15899 7.32916 8.60452 9.12744 9.44405C9.26946 9.50239 9.42875 9.50239 9.57077 9.44405C9.64352 9.41803 9.71037 9.37781 9.76745 9.32574C9.82453 9.27367 9.8707 9.21078 9.90327 9.14072L10.2649 8.32405C10.5665 8.43189 10.8743 8.5215 11.1866 8.59238C11.3422 8.62738 11.4997 8.65655 11.6591 8.67988C11.7918 8.70834 11.9104 8.78216 11.9945 8.88863C12.0786 8.9951 12.123 9.12756 12.1199 9.26322L12.1316 11.0832Z" fill="white"/>
</svg>
